<?xml version="1.0" encoding="UTF-8"?>
<svg width="52px" height="53px" viewBox="0 0 52 53" version="1.1" xmlns="http://www.w3.org/2000/svg" xmlns:xlink="http://www.w3.org/1999/xlink">
    <!-- Generator: Sketch 49.3 (51167) - http://www.bohemiancoding.com/sketch -->
    <title>behance</title>
    <desc>Created with Sketch.</desc>
    <defs>
        <circle id="path-1" cx="14.8932743" cy="14.8932743" r="14.8932743"></circle>
        <filter x="-77.2%" y="-43.6%" width="254.4%" height="254.4%" filterUnits="objectBoundingBox" id="filter-2">
            <feOffset dx="0" dy="10" in="SourceAlpha" result="shadowOffsetOuter1"></feOffset>
            <feGaussianBlur stdDeviation="6" in="shadowOffsetOuter1" result="shadowBlurOuter1"></feGaussianBlur>
            <feColorMatrix values="0 0 0 0 0.254901961   0 0 0 0 0.462745098   0 0 0 0 0.980392157  0 0 0 0.2 0" type="matrix" in="shadowBlurOuter1"></feColorMatrix>
        </filter>
    </defs>
    <g id="Page-1" stroke="none" stroke-width="1" fill="none" fill-rule="evenodd">
        <g id="Desktop-HD-Copy-32" transform="translate(-694.000000, -527.000000)" fill-rule="nonzero">
            <g id="behance" transform="translate(705.000000, 529.000000)">
                <g id="Oval">
                    <use fill="black" fill-opacity="1" filter="url(#filter-2)" xlink:href="#path-1"></use>
                    <use fill="#4176FA" fill-rule="evenodd" xlink:href="#path-1"></use>
                </g>
                <path d="M20.2324779,12.3029204 C15.9307965,12.3029204 15.9252212,16.5884071 15.9252212,16.6104425 C15.9252212,16.6104425 15.630531,20.9012389 20.2324779,20.9012389 C20.2324779,20.9012389 24.070354,21.119469 24.070354,17.9150442 L22.099646,17.9150442 C22.099646,17.9150442 22.1649558,19.1214159 20.2980531,19.1214159 C20.2980531,19.1214159 18.3273451,19.2525664 18.3273451,17.1724779 L24.1359292,17.1724779 C24.1359292,17.1724779 24.7746903,12.3029204 20.2324779,12.3029204 Z M18.3053097,15.6711504 C18.3053097,15.6711504 18.5455752,13.9460177 20.2762832,13.9460177 C22.0123009,13.9460177 21.9849813,15.6711504 21.9849813,15.6711504 L18.3053097,15.6711504 Z M13.3815929,14.5685841 C13.3815929,14.5685841 15.0902655,14.4430088 15.0902655,12.4340708 C15.0902655,10.430708 13.6927434,9.44787611 11.9184956,9.44787611 L6.08230088,9.44787611 L6.08230088,20.6662832 L11.9179646,20.6662832 C11.9179646,20.6662832 15.4829204,20.7756637 15.4829204,17.3527434 C15.4831858,17.3527434 15.6361062,14.5685841 13.3815929,14.5685841 Z M8.65380531,11.440354 L11.9182301,11.440354 C11.9182301,11.440354 12.7099115,11.440354 12.7099115,12.6084956 C12.7099115,13.7766372 12.2458407,13.9460177 11.7161947,13.9460177 L8.65380531,13.9460177 L8.65380531,11.440354 Z M11.7546903,18.6738053 L8.65380531,18.6738053 L8.65380531,15.6711484 L11.9182301,15.6711504 C11.9182301,15.6711504 13.1030973,15.6602655 13.0975221,17.2160177 C13.0975221,18.5264602 12.2187611,18.6629204 11.7546903,18.6738053 Z M17.819469,10.1084071 L17.819469,11.4897345 L22.4490265,11.4897345 L22.4490265,10.1084071 L17.819469,10.1084071 Z" id="Shape" fill="#F1F2F2"></path>
            </g>
        </g>
    </g>
</svg>