<?xml version="1.0" encoding="UTF-8"?>
<svg width="52px" height="51px" viewBox="0 0 52 51" version="1.1" xmlns="http://www.w3.org/2000/svg" xmlns:xlink="http://www.w3.org/1999/xlink">
    <!-- Generator: Sketch 49.3 (51167) - http://www.bohemiancoding.com/sketch -->
    <title>dribbble</title>
    <desc>Created with Sketch.</desc>
    <defs>
        <circle id="path-1" cx="15" cy="14.89875" r="14.0625"></circle>
        <filter x="-81.8%" y="-46.2%" width="263.6%" height="263.6%" filterUnits="objectBoundingBox" id="filter-2">
            <feOffset dx="0" dy="10" in="SourceAlpha" result="shadowOffsetOuter1"></feOffset>
            <feGaussianBlur stdDeviation="6" in="shadowOffsetOuter1" result="shadowBlurOuter1"></feGaussianBlur>
            <feColorMatrix values="0 0 0 0 0.925490196   0 0 0 0 0.250980392   0 0 0 0 0.478431373  0 0 0 0.2 0" type="matrix" in="shadowBlurOuter1"></feColorMatrix>
        </filter>
    </defs>
    <g id="Page-1" stroke="none" stroke-width="1" fill="none" fill-rule="evenodd">
        <g id="Desktop-HD-Copy-32" transform="translate(-630.000000, -528.000000)" fill-rule="nonzero">
            <g id="dribbble" transform="translate(641.000000, 529.000000)">
                <g id="Oval">
                    <use fill="black" fill-opacity="1" filter="url(#filter-2)" xlink:href="#path-1"></use>
                    <use fill="#EC407A" fill-rule="evenodd" xlink:href="#path-1"></use>
                </g>
                <path d="M15,0 C6.729375,0 0,6.729375 0,15 C0,23.270625 6.729375,30 15,30 C23.270625,30 30,23.270625 30,15 C30,6.729375 23.270625,0 15,0 Z M28.119375,15.1125 C24.943125,14.274375 21.68625,14.176875 18.583125,14.81625 C18.159375,13.75875 17.701875,12.718125 17.210625,11.690625 C20.0175,10.378125 22.6125,8.59875 24.88875,6.399375 C26.896875,8.70375 28.125,11.7075 28.125,15 C28.125,15.0375 28.119375,15.073125 28.119375,15.1125 Z M23.563125,5.075625 C21.436875,7.12875 19.018125,8.80125 16.396875,10.02375 C14.99625,7.3425 13.3575,4.78125 11.503125,2.3625 C12.61875,2.053125 13.786875,1.875 15,1.875 C18.271875,1.875 21.2625,3.08625 23.563125,5.075625 Z M9.650625,3.02625 C11.55375,5.44875 13.224375,8.02875 14.6475,10.730625 C10.71,12.234375 6.435,12.811875 2.154375,12.31125 C3.0225,8.15625 5.865,4.725 9.650625,3.02625 Z M1.875,15 C1.875,14.71875 1.899375,14.443125 1.918125,14.1675 C3.028125,14.29875 4.138125,14.385 5.244375,14.385 C8.773125,14.385 12.24,13.695 15.489375,12.429375 C15.939375,13.366875 16.363125,14.3175 16.755,15.28125 C12.14625,16.665 8.04,19.61625 5.27625,23.784375 C3.170625,21.455625 1.875,18.37875 1.875,15 Z M6.646875,25.115625 C9.189375,21.118125 13.066875,18.3 17.43,17.025 C18.615,20.2875 19.468125,23.675625 19.965,27.1425 C18.433125,27.7725 16.756875,28.125 15,28.125 C11.829375,28.125 8.9175,26.994375 6.646875,25.115625 Z M21.72375,26.25 C21.208125,22.94625 20.390625,19.711875 19.27125,16.59 C22.104375,16.0575 25.06875,16.183125 27.95625,16.99875 C27.350625,20.92875 25.005,24.28125 21.72375,26.25 Z" id="Shape" fill="#C2185B"></path>
            </g>
        </g>
    </g>
</svg>