<?xml version="1.0" encoding="UTF-8"?>
<svg width="162px" height="35px" viewBox="0 0 162 35" version="1.1" xmlns="http://www.w3.org/2000/svg" xmlns:xlink="http://www.w3.org/1999/xlink">
    <!-- Generator: Sketch 49.3 (51167) - http://www.bohemiancoding.com/sketch -->
    <title>Group 2</title>
    <desc>Created with Sketch.</desc>
    <defs></defs>
    <g id="DESKTOP-UI" stroke="none" stroke-width="1" fill="none" fill-rule="evenodd">
        <g id="Artboard-Copy-3" transform="translate(-7.000000, -6.000000)" fill="#FFFFFF">
            <g id="Group-2" transform="translate(7.000000, 6.000000)">
                <path d="M51.1923531,5.76 L64.9023531,5.76 L64.9023531,8.46 L54.0723531,8.46 L54.0723531,14.79 L64.1523531,14.79 L64.1523531,17.49 L54.0723531,17.49 L54.0723531,24.3 L65.4423531,24.3 L65.4423531,27 L51.1923531,27 L51.1923531,5.76 Z M74.0088236,19.41 L68.9688236,12.78 L72.4488236,12.78 L75.8988236,17.82 L79.2888236,12.78 L82.5588236,12.78 L77.6988236,19.41 L83.4588236,27 L79.9788236,27 L75.7788236,21.03 L71.5788236,27 L68.2488236,27 L74.0088236,19.41 Z M97.1252942,16.56 C96.6252917,16.0399974 96.1002969,15.6450013 95.5502942,15.375 C95.0002914,15.1049986 94.345298,14.97 93.5852942,14.97 C92.8452905,14.97 92.2002969,15.1049986 91.6502942,15.375 C91.1002914,15.6450013 90.640296,16.0149976 90.2702942,16.485 C89.9002923,16.9550023 89.6202951,17.4949969 89.4302942,18.105 C89.2402932,18.715003 89.1452942,19.3499967 89.1452942,20.01 C89.1452942,20.6700033 89.2552931,21.294997 89.4752942,21.885 C89.6952953,22.4750029 90.0052922,22.9899978 90.4052942,23.43 C90.8052962,23.8700022 91.2852914,24.2149987 91.8452942,24.465 C92.405297,24.7150012 93.0352907,24.84 93.7352942,24.84 C94.495298,24.84 95.1452915,24.7050013 95.6852942,24.435 C96.2252969,24.1649986 96.7252919,23.7700026 97.1852942,23.25 L99.1052942,25.17 C98.4052907,25.9500039 97.5902988,26.5099983 96.6602942,26.85 C95.7302895,27.1900017 94.7452994,27.36 93.7052942,27.36 C92.6052887,27.36 91.6002987,27.1800018 90.6902942,26.82 C89.7802896,26.4599982 88.9952975,25.9550032 88.3352942,25.305 C87.6752909,24.6549967 87.165296,23.8750045 86.8052942,22.965 C86.4452924,22.0549954 86.2652942,21.0500055 86.2652942,19.95 C86.2652942,18.8499945 86.4452924,17.8400046 86.8052942,16.92 C87.165296,15.9999954 87.6702909,15.2100033 88.3202942,14.55 C88.9702974,13.8899967 89.7502896,13.3750018 90.6602942,13.005 C91.5702987,12.6349981 92.5852886,12.45 93.7052942,12.45 C94.7452994,12.45 95.7402894,12.6349981 96.6902942,13.005 C97.6402989,13.3750018 98.4652907,13.9399962 99.1652942,14.7 L97.1252942,16.56 Z M115.291765,27 L112.591765,27 L112.591765,24.81 L112.531765,24.81 C112.191763,25.5700038 111.601769,26.1849976 110.761765,26.655 C109.921761,27.1250023 108.95177,27.36 107.851765,27.36 C107.151761,27.36 106.491768,27.255001 105.871765,27.045 C105.251762,26.8349989 104.706767,26.5100022 104.236765,26.07 C103.766762,25.6299978 103.391766,25.0650034 103.111765,24.375 C102.831763,23.6849965 102.691765,22.8700047 102.691765,21.93 L102.691765,12.78 L105.391765,12.78 L105.391765,21.18 C105.391765,21.8400033 105.481764,22.4049976 105.661765,22.875 C105.841766,23.3450023 106.081763,23.7249985 106.381765,24.015 C106.681766,24.3050014 107.026763,24.5149993 107.416765,24.645 C107.806767,24.7750006 108.211763,24.84 108.631765,24.84 C109.191768,24.84 109.711762,24.7500009 110.191765,24.57 C110.671767,24.3899991 111.091763,24.1050019 111.451765,23.715 C111.811767,23.324998 112.091764,22.830003 112.291765,22.23 C112.491766,21.629997 112.591765,20.9200041 112.591765,20.1 L112.591765,12.78 L115.291765,12.78 L115.291765,27 Z M128.208235,16.35 C127.888234,15.949998 127.493238,15.6150013 127.023235,15.345 C126.553233,15.0749986 125.978239,14.94 125.298235,14.94 C124.658232,14.94 124.103238,15.0749986 123.633235,15.345 C123.163233,15.6150013 122.928235,16.0099974 122.928235,16.53 C122.928235,16.9500021 123.063234,17.2899987 123.333235,17.55 C123.603237,17.8100013 123.923233,18.0199992 124.293235,18.18 C124.663237,18.3400008 125.058233,18.4599996 125.478235,18.54 C125.898237,18.6200004 126.258234,18.6899997 126.558235,18.75 C127.138238,18.8900007 127.683233,19.059999 128.193235,19.26 C128.703238,19.460001 129.143233,19.7199984 129.513235,20.04 C129.883237,20.3600016 130.173234,20.7499977 130.383235,21.21 C130.593236,21.6700023 130.698235,22.2299967 130.698235,22.89 C130.698235,23.690004 130.528237,24.3749971 130.188235,24.945 C129.848234,25.5150028 129.408238,25.9799982 128.868235,26.34 C128.328233,26.7000018 127.713239,26.9599992 127.023235,27.12 C126.333232,27.2800008 125.638239,27.36 124.938235,27.36 C123.758229,27.36 122.72324,27.1800018 121.833235,26.82 C120.943231,26.4599982 120.148239,25.8000048 119.448235,24.84 L121.488235,23.16 C121.928237,23.6000022 122.418233,23.9899983 122.958235,24.33 C123.498238,24.6700017 124.158231,24.84 124.938235,24.84 C125.278237,24.84 125.623234,24.8050003 125.973235,24.735 C126.323237,24.6649996 126.633234,24.5550007 126.903235,24.405 C127.173237,24.2549992 127.393234,24.0650011 127.563235,23.835 C127.733236,23.6049988 127.818235,23.3400015 127.818235,23.04 C127.818235,22.639998 127.693237,22.3100013 127.443235,22.05 C127.193234,21.7899987 126.893237,21.5850007 126.543235,21.435 C126.193234,21.2849992 125.823237,21.1650004 125.433235,21.075 C125.043233,20.9849995 124.698237,20.9100003 124.398235,20.85 C123.818232,20.7099993 123.268238,20.5500009 122.748235,20.37 C122.228233,20.1899991 121.768237,19.9500015 121.368235,19.65 C120.968233,19.3499985 120.648236,18.9700023 120.408235,18.51 C120.168234,18.0499977 120.048235,17.4800034 120.048235,16.8 C120.048235,16.0599963 120.203234,15.4150027 120.513235,14.865 C120.823237,14.3149972 121.233233,13.8600018 121.743235,13.5 C122.253238,13.1399982 122.833232,12.8700009 123.483235,12.69 C124.133239,12.5099991 124.788232,12.42 125.448235,12.42 C126.40824,12.42 127.328231,12.5999982 128.208235,12.96 C129.08824,13.3200018 129.788233,13.9199958 130.308235,14.76 L128.208235,16.35 Z M137.284706,20.88 C137.284706,21.5000031 137.419704,22.0649974 137.689706,22.575 C137.959707,23.0850025 138.314704,23.5199982 138.754706,23.88 C139.194708,24.2400018 139.704703,24.519999 140.284706,24.72 C140.864709,24.920001 141.464703,25.02 142.084706,25.02 C142.92471,25.02 143.654703,24.8250019 144.274706,24.435 C144.894709,24.044998 145.464703,23.5300032 145.984706,22.89 L148.024706,24.45 C146.524698,26.3900097 144.424719,27.36 141.724706,27.36 C140.6047,27.36 139.58971,27.1700019 138.679706,26.79 C137.769701,26.4099981 136.999709,25.8850033 136.369706,25.215 C135.739703,24.5449966 135.254708,23.7550045 134.914706,22.845 C134.574704,21.9349954 134.404706,20.9500053 134.404706,19.89 C134.404706,18.8299947 134.589704,17.8450045 134.959706,16.935 C135.329708,16.0249954 135.839703,15.2350033 136.489706,14.565 C137.139709,13.8949966 137.914701,13.3700019 138.814706,12.99 C139.71471,12.6099981 140.694701,12.42 141.754706,12.42 C143.014712,12.42 144.079701,12.6399978 144.949706,13.08 C145.81971,13.5200022 146.534703,14.0949964 147.094706,14.805 C147.654709,15.5150035 148.059705,16.3149955 148.309706,17.205 C148.559707,18.0950044 148.684706,18.9999954 148.684706,19.92 L148.684706,20.88 L137.284706,20.88 Z M145.804706,18.72 C145.784706,18.119997 145.689707,17.5700025 145.519706,17.07 C145.349705,16.5699975 145.094708,16.1350018 144.754706,15.765 C144.414704,15.3949981 143.989708,15.105001 143.479706,14.895 C142.969703,14.6849989 142.374709,14.58 141.694706,14.58 C141.034703,14.58 140.429709,14.7049987 139.879706,14.955 C139.329703,15.2050012 138.864708,15.529998 138.484706,15.93 C138.104704,16.330002 137.809707,16.7749975 137.599706,17.265 C137.389705,17.7550024 137.284706,18.2399976 137.284706,18.72 L145.804706,18.72 Z M153.201176,12.78 L155.901176,12.78 L155.901176,14.97 L155.961176,14.97 C156.141177,14.5899981 156.381175,14.2450015 156.681176,13.935 C156.981178,13.6249984 157.316175,13.3600011 157.686176,13.14 C158.056178,12.9199989 158.461174,12.7450006 158.901176,12.615 C159.341179,12.4849993 159.781174,12.42 160.221176,12.42 C160.661179,12.42 161.061175,12.4799994 161.421176,12.6 L161.301176,15.51 C161.081175,15.4499997 160.861177,15.4000002 160.641176,15.36 C160.421175,15.3199998 160.201177,15.3 159.981176,15.3 C158.66117,15.3 157.65118,15.6699963 156.951176,16.41 C156.251173,17.1500037 155.901176,18.2999922 155.901176,19.86 L155.901176,27 L153.201176,27 L153.201176,12.78 Z" id="Excuser"></path>
                <g id="Group">
                    <path d="M20.9150092,11.6018836 C19.0089239,11.784528 17.0994437,11.8676026 15.1851705,11.7927255 C14.5554005,11.768133 13.9264293,11.7210473 13.3047474,11.6847584 C13.2439372,11.8478087 13.3474843,11.931883 13.4069964,12.0225554 C16.1798017,16.252566 18.8033275,20.5828461 21.8614116,24.6219149 C22.1319122,24.979206 22.3689621,25.1153645 22.8404658,25.0435864 C24.8124538,24.743178 26.7928293,24.4974529 28.7709083,24.2374321 C29.896546,24.0895772 30.6498336,24.5815272 30.9164399,25.6245093 C31.2006203,26.7360705 30.7529813,27.6378956 29.679866,28.0161803 C28.7325649,28.3501785 27.7235549,28.384768 26.7398076,28.5379213 C25.1957877,28.7780481 23.6499704,29.0076781 22.1016568,29.2175141 C20.7591394,29.3994587 19.7133836,28.9164059 18.9138643,27.8034452 C17.7294134,26.1545478 16.4937381,24.5425391 15.2949085,22.9037387 C15.1044897,22.643318 14.9584054,22.5776381 14.6495615,22.7260928 C12.3123129,23.85065 9.96837425,24.9614114 7.61854428,26.0595767 C7.3152921,26.2012335 7.16880842,26.4171677 7.04948462,26.7033805 C6.08870342,29.0066784 5.11853609,31.3060775 4.15485916,33.6082758 C3.77252376,34.5217973 3.08294208,34.9882551 2.10418742,34.9998516 C0.672901026,35.0168464 -0.383439059,33.571287 0.133098162,32.2235978 C1.10955621,29.6758744 2.12026368,27.1404472 3.17181085,24.6230146 C3.62014878,23.5494418 4.41517475,22.751685 5.50566441,22.2673326 C6.79715724,21.6937075 8.06937853,21.0765956 9.3622693,20.5061695 C9.74919791,20.3354215 9.84565547,20.2178574 9.58114608,19.8130807 C8.30682788,17.8629752 7.08822741,15.8765806 5.81440848,13.9261752 C5.1269237,12.873496 4.65681791,11.7592357 4.54368498,10.5024188 C4.78642652,10.2626918 4.99092453,10.3840548 5.19232712,10.5679988 C5.53791678,10.8839025 5.91505985,11.1549199 6.34282815,11.3495605 C7.39028136,11.8263152 8.38710933,11.6405718 9.25912162,10.9795733 C10.3137642,10.180217 11.46107,10.0472575 12.7062312,10.2506955 C13.0120796,10.3006803 13.3444887,10.3887534 13.5790423,10.0712502 C13.7650676,9.81952692 14.0296769,9.56570429 13.8654194,9.2238085 C13.6773971,8.83252777 13.4395483,8.47793586 12.9178188,8.44954451 C11.8682686,8.39246191 10.9109823,8.69027113 10.0034225,9.17402368 C9.3877317,9.50232361 8.80159725,9.88510693 8.19539244,10.2309015 C7.3544343,10.7105553 6.46864236,10.9105943 5.5170476,10.5701981 C5.27820031,10.4847242 5.05383164,10.3862542 4.89496624,10.1655215 C4.72971027,10.2358 4.68607471,10.419744 4.55307112,10.5120158 C4.28267042,10.4252423 3.88855242,10.4815251 3.85070831,10.0859457 C3.81036788,9.66417427 4.13498851,9.43704351 4.46480147,9.25869787 C4.60249813,9.18422057 4.75397444,9.18741959 4.85921902,9.0095738 C5.76378324,7.48023997 7.24918972,6.77965352 9.03255619,7.0608678 C10.4762243,7.28849841 11.9088088,7.58590776 13.3532757,7.80644054 C15.975803,8.2068185 18.5867474,8.08005714 21.1862087,7.56981267 C22.474007,7.3170897 23.3635933,7.81553776 23.8368944,9.01007365 C23.8782333,9.50252355 23.875737,9.51172074 23.4381832,9.39355676 C23.2636409,9.34637114 23.1187549,9.36806453 22.9655811,9.44854 C22.396821,9.7477488 21.840143,10.0676513 21.2847632,10.3911527 C20.9947914,10.5601012 20.875867,10.7567412 21.0266443,11.0783432 C21.1197069,11.2768827 21.1180094,11.462926 20.9150092,11.6018836" id="Fill-18"></path>
                    <path d="M22.9765436,10.2475986 C23.0095979,10.6507798 22.8440347,10.8674402 22.4539939,10.9576562 C22.1272423,11.0331575 21.9125838,11.35759 21.5769854,11.4610999 C21.4122971,11.5119415 21.5135989,11.6892276 21.5773742,11.8058284 C21.7804638,12.1768403 21.633761,12.3811202 21.3039957,12.5690616 C20.7672521,12.8747203 20.2446051,13.2109244 19.7364438,13.5659025 C19.4839672,13.7421737 19.3132515,13.9896842 19.540354,14.3364423 C20.3056584,15.5050893 20.9321347,16.7612122 21.63065,17.971872 C22.020788,18.6478322 22.1442556,18.6530077 22.8091332,18.260279 C24.4996666,17.26151 26.1336187,16.1607534 27.8615812,15.2288599 C28.3460212,14.9676497 28.7793243,14.6047562 29.2472372,14.3079263 C29.5522117,14.1146064 29.5771969,13.8962208 29.3978287,13.5960421 C28.910861,12.7805466 28.4345873,11.9581503 27.952675,11.1394074 C27.6570334,10.6371814 27.4031957,10.1085706 27.0539867,9.64003616 C26.9161308,9.4550376 26.9670733,9.21808113 26.96649,9 C27.2076892,9.0442454 27.2933388,9.25999249 27.4018347,9.44275849 C28.2031099,10.7935626 29.0025381,12.1454829 29.7981747,13.4999403 C30.1232735,14.0532108 30.0688311,14.2847888 29.5383095,14.6079021 C27.2446323,16.0047782 24.9500801,17.4000306 22.653778,18.7921372 C22.0864105,19.1360539 21.8364617,19.0665399 21.5017382,18.4835356 C20.7442113,17.1642919 19.9885315,15.8439319 19.2358655,14.5217453 C18.8606019,13.8624279 18.9152387,13.6362283 19.5290766,13.2480662 C19.9860038,12.9591519 20.4303898,12.6426349 20.9076356,12.3959363 C21.2853297,12.2005867 21.3222728,11.9942773 21.079518,11.6702508 C20.980744,11.5382249 20.9005387,11.3910785 20.8117782,11.2507313 C20.8101254,10.9852588 21.0051459,10.906916 21.1918055,10.8625692 C21.6872312,10.744852 22.1481443,10.5504158 22.575031,10.2644444 C22.7045261,10.1776787 22.8379099,10.1282578 22.9765436,10.2475986" id="Path"></path>
                    <path d="M23.6345631,9.28920251 C24.2135696,10.487272 24.2133663,10.4869618 25.3420072,9.82604351 C25.7229298,9.60301461 26.1029378,9.37822795 26.4875192,9.16181651 C26.6762528,9.05552365 26.867019,8.92079641 27.0984387,9.05852218 C27.9013439,10.5357655 28.8025289,11.952211 29.6831838,13.3813744 C29.7728246,13.526855 29.8366505,13.6878452 29.9174492,13.8389093 C30.0748796,14.133386 30.0039394,14.3556911 29.7319679,14.5422206 C29.0334403,15.0210555 28.3099109,15.4592551 27.5751001,15.874914 C26.3750109,16.5538234 25.2095786,17.2929104 24.0121318,17.9746116 C23.4560945,18.2910086 22.9474185,18.6937428 22.3458493,18.9293862 C22.042778,19.0480868 21.806175,19.0410558 21.6108353,18.7206262 C20.7645325,17.3327185 19.9942516,15.8981784 19.1212192,14.5262974 C18.8764855,14.1415545 19.0077961,13.7627052 19.4656554,13.5004885 C19.9976055,13.1958788 20.5021146,12.8432926 21.0411791,12.5561571 C21.3268711,12.4039556 21.4286063,12.2575445 21.2650779,11.9634813 C21.0557127,11.587217 21.2066386,11.3895205 21.5824795,11.2902587 C21.9517143,11.1926513 22.1957365,10.849681 22.5918026,10.7732701 C22.8331823,10.7266377 22.719556,10.4601818 22.7248409,10.2815105 C22.8281007,9.94898341 23.1074914,9.72833266 23.2528274,9.41958704 C23.3233611,9.26986714 23.4656481,9.20648433 23.6345631,9.28920251" id="Fill-20"></path>
                    <path d="M3.4912305,6.9999809 C1.53874646,6.9936995 -0.0149459047,5.42105671 0.000108480986,3.46624567 C0.0149634709,1.55151594 1.59487639,-0.00467556685 3.51904622,1.05557038e-05 C5.44770246,0.00469667826 6.99860328,1.561287 6.99999905,3.49356477 C7.00139483,5.46283299 5.45687467,7.00626229 3.4912305,6.9999809" id="Fill-22"></path>
                </g>
            </g>
        </g>
    </g>
</svg>