<?xml version="1.0" encoding="UTF-8"?>
<svg width="54px" height="52px" viewBox="0 0 54 52" version="1.1" xmlns="http://www.w3.org/2000/svg" xmlns:xlink="http://www.w3.org/1999/xlink">
    <!-- Generator: Sketch 49.3 (51167) - http://www.bohemiancoding.com/sketch -->
    <title>github</title>
    <desc>Created with Sketch.</desc>
    <defs>
        <path d="M14.998125,0.0192773438 C6.71625,0.0192773438 0,6.76177734 0,15.0792773 C0,21.7317773 4.2975,27.3755273 10.26,29.3686523 C11.01,29.5074023 11.28375,29.0424023 11.28375,28.6430273 C11.28375,28.2849023 11.270625,27.3380273 11.263125,26.0817773 C7.09125,26.9911523 6.21,24.0624023 6.21,24.0624023 C5.529375,22.3224023 4.545,21.8592773 4.545,21.8592773 C3.181875,20.9255273 4.64625,20.9442773 4.64625,20.9442773 C6.151875,21.0511523 6.943125,22.4967773 6.943125,22.4967773 C8.281875,24.7974023 10.455,24.1336523 11.31,23.7474023 C11.445,22.7742773 11.833125,22.1105273 12.2625,21.7336523 C8.9325,21.3530273 5.43,20.0611523 5.43,14.2917773 C5.43,12.6474023 6.015,11.3030273 6.975,10.2492773 C6.819375,9.86865234 6.305625,8.33677734 7.12125,6.26490234 C7.12125,6.26490234 8.38125,5.85990234 11.24625,7.80802734 C12.4425,7.47427734 13.725,7.30740234 15.001875,7.30177734 C16.275,7.30927734 17.559375,7.47427734 18.7575,7.80990234 C21.620625,5.86177734 22.87875,6.26677734 22.87875,6.26677734 C23.69625,8.34052734 23.1825,9.87052734 23.02875,10.2511523 C23.990625,11.3049023 24.57,12.6492773 24.57,14.2936523 C24.57,20.0780273 21.06375,21.3511523 17.7225,21.7242773 C18.260625,22.1892773 18.740625,23.1080273 18.740625,24.5124023 C18.740625,26.5261523 18.721875,28.1499023 18.721875,28.6430273 C18.721875,29.0461523 18.991875,29.5149023 19.753125,29.3667773 C25.70625,27.3717773 30,21.7299023 30,15.0792773 C30,6.76177734 23.28375,0.0192773438 14.998125,0.0192773438 Z" id="path-1"></path>
        <filter x="-76.7%" y="-44.3%" width="253.3%" height="256.6%" filterUnits="objectBoundingBox" id="filter-2">
            <feOffset dx="0" dy="10" in="SourceAlpha" result="shadowOffsetOuter1"></feOffset>
            <feGaussianBlur stdDeviation="6" in="shadowOffsetOuter1" result="shadowBlurOuter1"></feGaussianBlur>
            <feColorMatrix values="0 0 0 0 0.360784314   0 0 0 0 0.419607843   0 0 0 0 0.752941176  0 0 0 0.3 0" type="matrix" in="shadowBlurOuter1"></feColorMatrix>
        </filter>
    </defs>
    <g id="Page-1" stroke="none" stroke-width="1" fill="none" fill-rule="evenodd">
        <g id="Desktop-HD-Copy-32" transform="translate(-758.000000, -528.000000)" fill-rule="nonzero">
            <g id="github" transform="translate(770.000000, 529.000000)">
                <g id="Shape">
                    <use fill="black" fill-opacity="1" filter="url(#filter-2)" xlink:href="#path-1"></use>
                    <use fill="#5C6BC0" fill-rule="evenodd" xlink:href="#path-1"></use>
                </g>
            </g>
        </g>
    </g>
</svg>