<?xml version="1.0" encoding="UTF-8"?>
<svg width="54px" height="54px" viewBox="0 0 54 54" version="1.1" xmlns="http://www.w3.org/2000/svg" xmlns:xlink="http://www.w3.org/1999/xlink">
    <!-- Generator: Sketch 49.3 (51167) - http://www.bohemiancoding.com/sketch -->
    <title>gmail</title>
    <desc>Created with Sketch.</desc>
    <defs>
        <filter x="-76.7%" y="-43.3%" width="253.3%" height="253.3%" filterUnits="objectBoundingBox" id="filter-1">
            <feOffset dx="0" dy="10" in="SourceAlpha" result="shadowOffsetOuter1"></feOffset>
            <feGaussianBlur stdDeviation="6" in="shadowOffsetOuter1" result="shadowBlurOuter1"></feGaussianBlur>
            <feColorMatrix values="0 0 0 0 0.674509804   0 0 0 0 0.133333333   0 0 0 0 0.00392156863  0 0 0 0.2 0" type="matrix" in="shadowBlurOuter1" result="shadowMatrixOuter1"></feColorMatrix>
            <feMerge>
                <feMergeNode in="shadowMatrixOuter1"></feMergeNode>
                <feMergeNode in="SourceGraphic"></feMergeNode>
            </feMerge>
        </filter>
    </defs>
    <g id="Page-1" stroke="none" stroke-width="1" fill="none" fill-rule="evenodd">
        <g id="Desktop-HD-Copy-32" transform="translate(-822.000000, -527.000000)" fill-rule="nonzero">
            <g id="gmail" filter="url(#filter-1)" transform="translate(834.000000, 529.000000)">
                <g id="Group" fill="#ECE5DD">
                    <circle id="Oval" cx="15" cy="15" r="15"></circle>
                    <circle id="Oval" cx="15" cy="15" r="15"></circle>
                </g>
                <path d="M30,15 C30,10.8192773 28.2890039,7.03869141 25.5298828,4.31847656 L16.9565039,11.0869336 L14.347793,11.739082 L5.86957031,5.86957031 L3.69292969,5.14400391 C3.40324219,5.47605469 3.12837891,5.82128906 2.86851563,6.17806641 L21.6302344,28.4576367 C26.5887305,26.0100586 30,20.9037891 30,15 Z" id="Shape" fill="#D9CBBD"></path>
                <path d="M30,15 C30,11.6781445 28.9194141,8.60917969 27.0916992,6.12351562 L26.0543555,6.9375 L26.0543555,25.1382422 C28.5041602,22.468418 30,18.909082 30,15 Z" id="Shape" fill="#AC2201"></path>
                <path d="M24.3824414,3.29724609 L15.3706055,10.1135742 C15.1513477,10.2793945 14.8485937,10.2793945 14.6293359,10.1135742 L5.61755859,3.29724609 C4.57945313,4.13056641 3.65472656,5.09912109 2.86980469,6.17625 L14.6207227,15.3960352 C14.8433789,15.5707617 15.1565625,15.5707617 15.3792188,15.3960352 L27.1301367,6.17625 C26.3452734,5.0990625 25.4205469,4.130625 24.3824414,3.29724609 Z" id="Shape" fill="#CD2900"></path>
                <path d="M3.94564453,25.1382422 L3.94564453,6.9375 L2.90830078,6.12351563 C1.08058594,8.60917969 0,11.6781445 0,15 C0,18.909082 1.49583984,22.468418 3.94564453,25.1382422 Z" id="Shape" fill="#AC2201"></path>
            </g>
        </g>
    </g>
</svg>