<?xml version="1.0" encoding="UTF-8"?>
<svg width="34px" height="34px" viewBox="0 0 34 34" version="1.1" xmlns="http://www.w3.org/2000/svg" xmlns:xlink="http://www.w3.org/1999/xlink">
    <!-- Generator: Sketch 49.3 (51167) - http://www.bohemiancoding.com/sketch -->
    <title>P</title>
    <desc>Created with Sketch.</desc>
    <defs>
        <circle id="path-1" cx="17" cy="17" r="17"></circle>
    </defs>
    <g id="Page-1" stroke="none" stroke-width="1" fill="none" fill-rule="evenodd">
        <g id="Desktop-HD-Copy-32" transform="translate(-63.000000, -36.000000)">
            <g id="P" transform="translate(63.000000, 36.000000)">
                <mask id="mask-2" fill="white">
                    <use xlink:href="#path-1"></use>
                </mask>
                <use id="Mask" fill="#000000" xlink:href="#path-1"></use>
                <path d="M28,13.7547569 C28,15.2769632 27.6774468,16.5866753 27.0323308,17.6839323 C26.3872148,18.7811894 25.49775,19.672301 24.3639098,20.3572939 C23.1909716,21.0676568 21.8518872,21.5813938 20.3466165,21.8985201 C18.8413459,22.2156464 17.1503853,22.3742072 15.2736842,22.3742072 L13.006015,22.3742072 L13.006015,29.9661734 C13.006015,30.4228353 13.0939841,30.8192372 13.2699248,31.1553911 C13.4458655,31.491545 13.7814512,31.7610984 14.2766917,31.9640592 C14.5373447,32.0655396 14.9608993,32.173361 15.5473684,32.2875264 C16.1338375,32.4016919 16.6290707,32.4778011 17.0330827,32.5158562 L17.0330827,34 L2,34 L2,32.5158562 C2.37794675,32.4778011 2.87969612,32.4238904 3.50526316,32.3541226 C4.1308302,32.2843548 4.56741731,32.198732 4.81503759,32.0972516 C5.32331081,31.8942907 5.65889643,31.6469359 5.82180451,31.3551797 C5.98471259,31.0634235 6.06616541,30.6575079 6.06616541,30.1374207 L6.06616541,11.0909091 C6.06616541,10.6469322 5.98797071,10.2632151 5.83157895,9.9397463 C5.67518719,9.61627745 5.33634346,9.34672412 4.81503759,9.13107822 C4.45012349,8.97885759 3.96466468,8.84249532 3.35864662,8.72198732 C2.75262855,8.60147931 2.29975087,8.52219892 2,8.48414376 L2,7 L17.3067669,7 C20.8907447,7 23.5689134,7.55496274 25.3413534,8.66490486 C27.1137933,9.77484699 28,11.4714474 28,13.7547569 Z M20.3759398,14.7251586 C20.3759398,12.6955501 19.9556433,11.1892227 19.1150376,10.2061311 C18.2744319,9.22303948 16.7789581,8.73150106 14.6285714,8.73150106 L13.006015,8.73150106 L13.006015,20.5856237 L13.8270677,20.5856237 C15.9644217,20.5856237 17.59022,20.1067701 18.7045113,19.1490486 C19.8188026,18.1913271 20.3759398,16.7167119 20.3759398,14.7251586 Z" fill="#FFFFFF" mask="url(#mask-2)"></path>
            </g>
        </g>
    </g>
</svg>