<?xml version="1.0" encoding="UTF-8"?>
<svg width="209px" height="45px" viewBox="0 0 209 45" version="1.1" xmlns="http://www.w3.org/2000/svg" xmlns:xlink="http://www.w3.org/1999/xlink">
    <!-- Generator: Sketch 49.3 (51167) - http://www.bohemiancoding.com/sketch -->
    <title>Page 1</title>
    <desc>Created with Sketch.</desc>
    <defs>
        <polygon id="path-1" points="0 44.8732394 208.774648 44.8732394 208.774648 0.104070423 0 0.104070423"></polygon>
    </defs>
    <g id="DESKTOP-UI" stroke="none" stroke-width="1" fill="none" fill-rule="evenodd">
        <g id="Artboard-Copy-4">
            <g id="Page-1">
                <polygon id="Fill-1" fill="#FFFFFF" points="80.2554085 19.2252549 74.9692394 30.4476211 72.3679859 30.4476211 67.109831 19.2252549 67.109831 32.1515366 62.7464789 32.1515366 62.7464789 11.6163254 68.6480704 11.6163254 73.6826197 22.8976352 78.7450563 11.6163254 84.6187606 11.6163254 84.6187606 32.1515366 80.2554085 32.1515366"></polygon>
                <polygon id="Fill-2" fill="#FFFFFF" points="103.526125 11.6162746 103.526125 15.6998662 93.7926887 15.6998662 93.7926887 19.9302465 102.547027 19.9302465 102.547027 23.8375141 93.7926887 23.8375141 93.7926887 28.0974296 103.833773 28.0974296 103.833773 32.1514859 89.4293366 32.1514859 89.4293366 11.6162746"></polygon>
                <g id="Group-17" transform="translate(0.000000, 0.022690)">
                    <path d="M119.454503,26.4882042 C120.526644,25.4305141 121.062841,23.8932887 121.062841,21.8758944 C121.062841,19.8587535 120.526644,18.3064437 119.454503,17.2193451 C118.382108,16.1326268 116.736756,15.5890775 114.517939,15.5890775 L112.084517,15.5890775 L112.084517,28.0747394 L114.853475,28.0747394 C116.848432,28.0747394 118.382108,27.5457676 119.454503,26.4882042 M122.657108,14.2815423 C124.521503,16.0735563 125.45408,18.5661761 125.45408,21.7583873 C125.45408,24.9509789 124.544954,27.4774437 122.726954,29.3377817 C120.90908,31.1987535 118.135179,32.1287958 114.40601,32.1287958 L107.721165,32.1287958 L107.721165,11.5935845 L114.629742,11.5935845 C118.116292,11.5935845 120.792334,12.4894014 122.657108,14.2815423" id="Fill-3" fill="#FFFFFF"></path>
                    <polygon id="Fill-5" fill="#FFFFFF" points="137.005758 15.5595676 137.005758 32.1288211 132.642406 32.1288211 132.642406 15.5595676 127.10449 15.5595676 127.10449 11.5936099 142.543673 11.5936099 142.543673 15.5595676"></polygon>
                    <path d="M156.332294,20.8474859 C156.872928,20.338669 157.143308,19.5306972 157.143308,18.4240775 C157.143308,17.3175845 156.863801,16.5584155 156.30428,16.1472042 C155.744886,15.7358662 154.766168,15.5303873 153.367618,15.5303873 L150.095168,15.5303873 L150.095168,21.6114718 L153.283703,21.6114718 C154.775168,21.6114718 155.791154,21.3571901 156.332294,20.8474859 M161.590576,18.4092465 C161.590576,21.6996972 160.350351,23.8249648 157.870787,24.7842887 L162.000013,32.1287958 L156.629801,32.1287958 L153.115872,25.5775563 L150.095168,25.5775563 L150.095168,32.1287958 L145.731815,32.1287958 L145.731815,11.5935845 L153.143759,11.5935845 C156.182844,11.5935845 158.350576,12.1324437 159.646703,13.2092746 C160.942576,14.2867394 161.590576,16.0201901 161.590576,18.4092465" id="Fill-7" fill="#FFFFFF"></path>
                    <path d="M174.092641,17.7042169 L171.631458,23.6680479 L176.526063,23.6680479 L174.092641,17.7042169 Z M179.994486,32.1288085 L178.176232,27.6929493 L169.981162,27.6929493 L168.163162,32.1288085 L163.520303,32.1288085 L171.966993,11.5935972 L176.190401,11.5935972 L184.637345,32.1288085 L179.994486,32.1288085 Z" id="Fill-9" fill="#FFFFFF"></path>
                    <mask id="mask-2" fill="white">
                        <use xlink:href="#path-1"></use>
                    </mask>
                    <g id="Clip-12"></g>
                    <polygon id="Fill-11" fill="#FFFFFF" mask="url(#mask-2)" points="186.902746 32.1288592 191.266099 32.1288592 191.266099 11.5936479 186.902746 11.5936479"></polygon>
                    <polygon id="Fill-13" fill="#FFFFFF" mask="url(#mask-2)" points="196.076434 32.1287958 196.076434 11.5935845 200.439786 11.5935845 200.439786 28.0452042 208.774673 28.0452042 208.774673 32.1287958"></polygon>
                    <path d="M42.0827704,0.300764789 L34.1598549,7.43155352 C32.0229254,9.35463803 30.8028549,12.0943141 30.8028549,14.9691169 L30.8028549,44.1111169 C30.8028549,44.7697648 31.5828127,45.1170887 32.0721085,44.676469 L39.9951507,37.545807 C42.1319535,35.6225958 43.3521507,32.8829197 43.3521507,30.0082437 L43.3521507,0.866116901 C43.3521507,0.207722535 42.572193,-0.139728169 42.0827704,0.300764789" id="Fill-14" fill="#FFFFFF" mask="url(#mask-2)"></path>
                    <path d="M24.9700944,4.75000986 L17.3487423,11.6092775 C15.7461085,13.0515592 14.8310239,15.1064746 14.8310239,17.2625451 L14.8310239,40.6886577 C14.8310239,41.3471789 15.6109817,41.6945028 16.1002775,41.2540099 L23.7216296,34.3947423 C25.3242634,32.9523338 26.2394746,30.8975451 26.2394746,28.7416014 L26.2394746,5.31548873 C26.2394746,4.65696761 25.4595169,4.3095169 24.9700944,4.75000986" id="Fill-15" fill="#FFFFFF" mask="url(#mask-2)"></path>
                    <path d="M8.99826338,8.05852394 L1.67847465,14.6462704 C0.61013662,15.6078761 3.8028169e-05,16.9776507 3.8028169e-05,18.4151155 L3.8028169e-05,36.2392986 C3.8028169e-05,36.8979465 0.779995775,37.2451437 1.26929155,36.8046507 L8.58908028,30.2169042 C9.65754507,29.2554254 10.2676437,27.8855239 10.2676437,26.4480592 L10.2676437,8.62387606 C10.2676437,7.96535493 9.48768592,7.61803099 8.99826338,8.05852394" id="Fill-16" fill="#FFFFFF" mask="url(#mask-2)"></path>
                </g>
            </g>
        </g>
    </g>
</svg>