<?xml version="1.0" encoding="UTF-8"?>
<svg width="205px" height="44px" viewBox="0 0 205 44" version="1.1" xmlns="http://www.w3.org/2000/svg" xmlns:xlink="http://www.w3.org/1999/xlink">
    <!-- Generator: Sketch 49.3 (51167) - http://www.bohemiancoding.com/sketch -->
    <title>Group 5</title>
    <desc>Created with Sketch.</desc>
    <defs></defs>
    <g id="Page-1" stroke="none" stroke-width="1" fill="none" fill-rule="evenodd">
        <g id="Desktop-HD-Copy-16" transform="translate(-164.000000, -1626.000000)" fill-rule="nonzero">
            <g id="Group-5" transform="translate(164.000000, 1626.000000)">
                <g id="Spectrum" transform="translate(63.147321, 8.250000)" fill="#FFFFFF">
                    <path d="M3.45276144,20.7687466 C2.27735329,20.3299703 1.39579718,19.8180646 0.661167084,19.1599001 C0.440778056,18.9405119 0.293852038,18.574865 0.293852038,18.2823474 C0.293852038,17.8435711 0.514241066,17.4047947 0.881556113,17.1122772 C1.24887116,16.8197596 1.61618621,16.6735008 1.91003824,16.6735008 C2.27735329,16.6735008 2.64466834,16.8197596 3.01198338,17.1854066 C3.37929843,17.6241829 3.96700251,17.9167004 4.7016326,18.2823474 C5.43626269,18.574865 6.2443558,18.7211237 7.0524489,18.7211237 C8.15439404,18.7211237 9.03595015,18.5017356 9.62365423,18.1360886 C10.2113583,17.7704417 10.5786734,17.2585359 10.5786734,16.6735008 C10.5786734,16.0884657 10.2848213,15.57656 9.69711724,15.1377836 C9.10941316,14.7721367 8.08093103,14.4064897 6.61167084,14.1139722 C2.86505737,13.3826783 0.955019122,11.8469611 0.955019122,9.50682065 C0.955019122,8.55613858 1.24887116,7.7517153 1.83657523,7.09355079 C2.42427931,6.43538628 3.1589094,5.92348056 4.04046552,5.630963 C4.92202163,5.26531605 5.95050376,5.11905727 6.97898589,5.11905727 C8.22785705,5.11905727 9.4032652,5.33844544 10.3582843,5.70409239 C11.3133034,6.06973934 12.1948596,6.65477445 12.7825636,7.38606835 C13.0029527,7.67858591 13.1498787,8.04423286 13.1498787,8.33675041 C13.1498787,8.70239736 13.0029527,8.99491492 12.6356376,9.21430309 C12.4152486,9.36056187 12.1213965,9.43369126 11.8275445,9.43369126 C11.3133034,9.43369126 10.8725254,9.21430309 10.4317473,8.84865614 C9.91750627,8.4098798 9.4032652,8.11736224 8.88902414,7.89797408 C8.37478307,7.67858591 7.71361598,7.60545652 6.90552288,7.60545652 C6.02396677,7.60545652 5.28933668,7.7517153 4.7016326,8.04423286 C4.11392853,8.33675041 3.82007649,8.77552675 3.82007649,9.28743248 C3.82007649,9.65307943 3.8935395,10.0187264 4.11392853,10.2381145 C4.33431755,10.5306321 4.7016326,10.7500203 5.21587367,10.9694084 C5.73011473,11.1887966 6.53820783,11.4081848 7.56668997,11.6275729 C9.69711724,12.0663493 11.2398404,12.6513844 12.1213965,13.3826783 C13.0029527,14.1139722 13.4437307,15.1377836 13.4437307,16.3078539 C13.4437307,17.1854066 13.2233417,17.9898298 12.7091006,18.7211237 C12.1948596,19.4524176 11.5336925,20.0374527 10.5786734,20.4762291 C9.62365423,20.9150054 8.5951721,21.1343936 7.27283793,21.2806524 C5.95050376,21.2806524 4.62816959,21.1343936 3.45276144,20.7687466 Z" id="Shape"></path>
                    <path d="M29.5321298,6.21599812 C30.7810009,6.94729201 31.7360201,7.89797408 32.4706501,9.1411737 C33.2052802,10.3843733 33.4991323,11.7738317 33.4991323,13.2364195 C33.4991323,14.7721367 33.2052802,16.1615951 32.5441132,17.3316653 C31.8829461,18.574865 31.00139,19.525547 29.8259818,20.2568409 C28.6505737,20.9881348 27.4017025,21.2806524 26.0059053,21.2806524 C24.9039602,21.2806524 23.802015,21.0612642 22.8469959,20.5493585 C21.8919768,20.0374527 21.0104207,19.4524176 20.3492536,18.574865 L20.3492536,26.472839 C20.3492536,26.9116154 20.2023276,27.2772623 19.9084755,27.5697799 C19.6146235,27.8622974 19.2473085,28.0085562 18.8065304,28.0085562 C18.3657523,28.0085562 17.9984373,27.8622974 17.7045853,27.5697799 C17.4107332,27.2772623 17.2638072,26.9116154 17.2638072,26.472839 L17.2638072,13.1632901 C17.2638072,11.6275729 17.6311223,10.2381145 18.3657523,9.06804431 C19.1003824,7.82484469 20.0554016,6.87416262 21.2308097,6.14286873 C22.4796809,5.41157483 23.802015,5.04592788 25.3447382,5.04592788 C26.8874614,5.11905727 28.2832586,5.48470422 29.5321298,6.21599812 Z M28.0628696,17.9898298 C28.8709627,17.4779241 29.4586668,16.892889 29.9729078,16.0153363 C30.4136859,15.210913 30.6340749,14.260231 30.6340749,13.2364195 C30.6340749,12.2126081 30.4136859,11.261926 29.9729078,10.4575027 C29.5321298,9.65307943 28.8709627,8.99491492 28.0628696,8.48300919 C27.2547765,7.97110347 26.3732204,7.7517153 25.4182012,7.7517153 C24.4631821,7.7517153 23.581626,7.97110347 22.7735329,8.48300919 C21.9654398,8.99491492 21.3777357,9.57995004 20.9369577,10.4575027 C20.4961796,11.261926 20.2757906,12.2126081 20.2757906,13.2364195 C20.2757906,14.260231 20.4961796,15.210913 20.9369577,16.0153363 C21.3777357,16.8197596 22.0389028,17.4779241 22.7735329,17.9898298 C23.581626,18.5017356 24.4631821,18.7211237 25.4182012,18.7211237 C26.3732204,18.7211237 27.2547765,18.574865 28.0628696,17.9898298 Z" id="Shape"></path>
                    <path d="M51.8648846,13.9677134 C51.6444956,14.1871016 51.3506436,14.260231 50.9833285,14.260231 L39.8169511,14.260231 C40.0373401,15.6496894 40.6250442,16.7466302 41.6535263,17.5510535 C42.6820085,18.3554768 43.9308796,18.7942531 45.4001398,18.7942531 C45.9878439,18.7942531 46.5755479,18.7211237 47.236715,18.5017356 C47.8978821,18.2823474 48.4121232,17.9898298 48.7794382,17.6973123 C49.0732903,17.4779241 49.3671423,17.4047947 49.7344574,17.4047947 C50.1017724,17.4047947 50.3956244,17.4779241 50.6160135,17.6973123 C50.9833285,17.9898298 51.1302545,18.3554768 51.1302545,18.7211237 C51.1302545,19.0867707 50.9833285,19.3792882 50.6894765,19.5986764 C50.0283094,20.1105821 49.2202163,20.5493585 48.1917342,20.9150054 C47.236715,21.2806524 46.2816959,21.4269112 45.3266768,21.4269112 C43.7104906,21.4269112 42.3146934,21.0612642 40.9923592,20.4030997 C39.7434881,19.7449352 38.7150059,18.7211237 38.0538389,17.5510535 C37.3192088,16.3078539 36.9518937,14.9183955 36.9518937,13.3826783 C36.9518937,11.8469611 37.3192088,10.4575027 37.9803758,9.21430309 C38.6415429,7.97110347 39.5965621,7.0204214 40.7719702,6.2891275 C41.9473784,5.630963 43.3431755,5.26531605 44.8858987,5.26531605 C46.3551589,5.26531605 47.6774931,5.630963 48.7794382,6.2891275 C49.8813834,6.94729201 50.6894765,7.89797408 51.2771805,9.06804431 C51.8648846,10.2381145 52.1587367,11.6275729 52.1587367,13.1632901 C52.1587367,13.4558077 52.0852737,13.7483252 51.8648846,13.9677134 Z M41.5800633,8.84865614 C40.6985072,9.65307943 40.1108031,10.6768909 39.8904141,11.9932199 L49.5875313,11.9932199 C49.4406053,10.6768909 48.9263642,9.65307943 48.1182711,8.84865614 C47.310178,8.04423286 46.2816959,7.67858591 44.9593617,7.67858591 C43.5635646,7.67858591 42.4616194,8.04423286 41.5800633,8.84865614 Z" id="Shape"></path>
                    <path d="M58.6234815,20.3299703 C57.3746103,19.5986764 56.4195912,18.6479943 55.7584241,17.4047947 C55.097257,16.1615951 54.729942,14.7721367 54.729942,13.3095489 C54.729942,11.7738317 55.097257,10.3843733 55.7584241,9.1411737 C56.4195912,7.89797408 57.3746103,6.94729201 58.5500185,6.21599812 C59.7254266,5.55783361 61.1212238,5.19218666 62.663947,5.19218666 C64.9413003,5.19218666 66.8513385,6.06973934 68.3940617,7.82484469 C68.6144508,8.04423286 68.6879138,8.26362102 68.6879138,8.55613858 C68.6879138,8.99491492 68.4675247,9.36056187 68.0267467,9.65307943 C67.8063577,9.79933821 67.5859686,9.87246759 67.3655796,9.87246759 C66.9248015,9.87246759 66.5574865,9.72620882 66.1901715,9.36056187 C65.6759304,8.84865614 65.1616893,8.48300919 64.5739852,8.19049163 C63.9862812,7.97110347 63.3251141,7.82484469 62.590484,7.82484469 C61.1212238,7.82484469 59.8723526,8.33675041 58.9173335,9.36056187 C57.9623144,10.3843733 57.5215363,11.7007023 57.5215363,13.3095489 C57.5215363,14.3333604 57.7419254,15.2840424 58.1827034,16.1615951 C58.6234815,17.0391478 59.2111856,17.6241829 60.0192787,18.1360886 C60.8273718,18.6479943 61.7089279,18.8673825 62.73741,18.8673825 C64.0597442,18.8673825 65.1616893,18.5017356 65.9697824,17.8435711 C66.3370975,17.5510535 66.7044125,17.4047947 67.0717276,17.4047947 C67.3655796,17.4047947 67.5859686,17.4779241 67.8063577,17.6973123 C68.1736727,17.9898298 68.3940617,18.3554768 68.3940617,18.7211237 C68.3940617,19.0136413 68.2471357,19.3061589 68.0267467,19.525547 C66.6309495,20.841876 64.8678373,21.5000405 62.73741,21.5000405 C61.2681498,21.3537818 59.8723526,21.0612642 58.6234815,20.3299703 Z" id="Shape"></path>
                    <path d="M80.8827733,18.7211237 C81.1031624,19.0136413 81.2500884,19.3792882 81.2500884,19.7449352 C81.2500884,20.1837115 81.1031624,20.4762291 80.7358473,20.7687466 C80.4419953,21.0612642 80.0012172,21.207523 79.4869761,21.207523 L78.9727351,21.207523 C78.017716,21.207523 77.1361598,20.9881348 76.3280667,20.4762291 C75.5199736,19.9643234 74.9322696,19.3061589 74.4914915,18.4286062 C74.0507135,17.5510535 73.8303244,16.6003714 73.8303244,15.5034306 L73.8303244,8.26362102 L72.5079903,8.26362102 C72.0672122,8.26362102 71.7733602,8.11736224 71.4795081,7.89797408 C71.1856561,7.67858591 71.1121931,7.38606835 71.1121931,7.0204214 C71.1121931,6.65477445 71.2591191,6.2891275 71.4795081,6.06973934 C71.6998972,5.85035117 72.0672122,5.70409239 72.5079903,5.70409239 L73.8303244,5.70409239 L73.8303244,1.53571718 C73.8303244,1.09694084 73.9772504,0.731293896 74.2711025,0.511905727 C74.5649545,0.219388169 74.9322696,0.0731293896 75.2995846,0.0731293896 C75.7403627,0.0731293896 76.1076777,0.219388169 76.4015298,0.511905727 C76.6953818,0.804423286 76.7688448,1.17007023 76.7688448,1.53571718 L76.7688448,5.70409239 L79.2665871,5.70409239 C79.7073652,5.70409239 80.0012172,5.85035117 80.2950693,6.06973934 C80.5889213,6.2891275 80.6623843,6.58164506 80.6623843,7.0204214 C80.6623843,7.38606835 80.5154583,7.67858591 80.2950693,7.89797408 C80.0746802,8.11736224 79.7073652,8.26362102 79.2665871,8.26362102 L76.7688448,8.26362102 L76.7688448,15.5034306 C76.7688448,16.3078539 76.9892338,16.9660184 77.4300119,17.4779241 C77.8707899,17.9898298 78.385031,18.2823474 79.0461981,18.2823474 L80.0746802,18.2823474 C80.3685323,18.3554768 80.6623843,18.4286062 80.8827733,18.7211237 Z" id="Shape"></path>
                    <path d="M95.2080602,5.55783361 C95.7957642,5.85035117 96.0896163,6.2891275 96.0896163,6.72790384 L96.0896163,7.0204214 C95.9426903,7.67858591 95.5019122,7.97110347 94.9142081,7.97110347 C94.8407451,7.97110347 94.6938191,7.97110347 94.4734301,7.89797408 C93.665337,7.7517153 93.0776329,7.67858591 92.5633918,7.67858591 C91.1675946,7.67858591 89.9921865,7.97110347 89.1840934,8.62926797 C88.3025373,9.28743248 87.8617592,10.1649852 87.8617592,11.261926 L87.8617592,19.8180646 C87.8617592,20.2568409 87.7148332,20.6224879 87.4944442,20.9150054 C87.2740551,21.1343936 86.9067401,21.2806524 86.392499,21.2806524 C85.951721,21.2806524 85.5844059,21.1343936 85.2905539,20.9150054 C85.0701649,20.6956173 84.9232388,20.3299703 84.9232388,19.8180646 L84.9232388,6.80103323 C84.9232388,6.36225689 85.0701649,5.99660995 85.3640169,5.70409239 C85.6578689,5.41157483 85.878258,5.33844544 86.392499,5.33844544 C87.3475182,5.33844544 87.8617592,5.85035117 87.8617592,6.80103323 L87.8617592,7.38606835 C88.4494633,6.72790384 89.1840934,6.14286873 90.0656495,5.77722178 C90.9472056,5.41157483 91.8287617,5.19218666 92.8572439,5.19218666 C93.812263,5.11905727 94.6203561,5.26531605 95.2080602,5.55783361 Z" id="Shape"></path>
                    <path d="M113.426886,5.630963 C113.720739,5.92348056 113.867665,6.2891275 113.867665,6.72790384 L113.867665,19.7449352 C113.867665,20.1837115 113.720739,20.5493585 113.426886,20.841876 C113.133034,21.1343936 112.765719,21.2806524 112.324941,21.2806524 C111.884163,21.2806524 111.516848,21.1343936 111.222996,20.841876 C110.929144,20.5493585 110.782218,20.1837115 110.782218,19.7449352 L110.782218,19.4524176 C110.121051,20.1105821 109.386421,20.5493585 108.578328,20.9150054 C107.696772,21.2806524 106.815216,21.4269112 105.786734,21.4269112 C104.464399,21.4269112 103.215528,21.1343936 102.187046,20.5493585 C101.085101,19.9643234 100.277008,19.0867707 99.6893037,17.9898298 C99.1015997,16.892889 98.8077476,15.5034306 98.8077476,13.9677134 L98.8077476,6.80103323 C98.8077476,6.36225689 98.9546736,5.99660995 99.2485257,5.70409239 C99.5423777,5.41157483 99.9096928,5.26531605 100.350471,5.26531605 C100.791249,5.26531605 101.158564,5.41157483 101.452416,5.70409239 C101.746268,5.99660995 101.893194,6.36225689 101.893194,6.80103323 L101.893194,13.9677134 C101.893194,15.57656 102.333972,16.7466302 103.142065,17.5510535 C104.023621,18.3554768 105.125566,18.7942531 106.521364,18.7942531 C107.329457,18.7942531 108.064087,18.6479943 108.798717,18.2823474 C109.459884,17.9167004 109.974125,17.4779241 110.414903,16.9660184 C110.855681,16.4541127 111.002607,15.7959482 111.002607,15.0646543 L111.002607,6.80103323 C111.002607,6.36225689 111.149533,5.99660995 111.443385,5.70409239 C111.737237,5.41157483 112.104552,5.26531605 112.54533,5.26531605 C112.839182,5.26531605 113.206497,5.33844544 113.426886,5.630963 Z" id="Shape"></path>
                    <path d="M140.093959,6.80103323 C141.122441,7.89797408 141.636682,9.43369126 141.636682,11.4081848 L141.636682,19.7449352 C141.636682,20.1837115 141.489756,20.5493585 141.195904,20.841876 C140.902052,21.1343936 140.534737,21.2806524 140.093959,21.2806524 C139.653181,21.2806524 139.285866,21.1343936 138.992014,20.841876 C138.698162,20.5493585 138.551236,20.1837115 138.551236,19.7449352 L138.551236,11.4081848 C138.551236,10.2381145 138.257384,9.28743248 137.66968,8.70239736 C137.081976,8.11736224 136.273882,7.7517153 135.2454,7.7517153 C134.216918,7.7517153 133.408825,8.11736224 132.747658,8.77552675 C132.086491,9.50682065 131.792639,10.3843733 131.792639,11.4813142 L131.792639,19.7449352 C131.792639,20.1837115 131.645713,20.5493585 131.351861,20.841876 C131.058009,21.1343936 130.690694,21.2806524 130.249916,21.2806524 C129.809138,21.2806524 129.441823,21.1343936 129.14797,20.841876 C128.854118,20.5493585 128.707192,20.1837115 128.707192,19.7449352 L128.707192,11.4081848 C128.707192,10.2381145 128.41334,9.28743248 127.825636,8.70239736 C127.237932,8.11736224 126.429839,7.7517153 125.401357,7.7517153 C124.372875,7.7517153 123.491319,8.11736224 122.830152,8.77552675 C122.168985,9.50682065 121.875133,10.3843733 121.875133,11.4813142 L121.875133,19.7449352 C121.875133,20.1837115 121.728207,20.5493585 121.434355,20.841876 C121.140502,21.1343936 120.773187,21.2806524 120.332409,21.2806524 C119.891631,21.2806524 119.524316,21.1343936 119.230464,20.841876 C118.936612,20.5493585 118.789686,20.1837115 118.789686,19.7449352 L118.789686,6.72790384 C118.789686,6.2891275 118.936612,5.92348056 119.230464,5.630963 C119.524316,5.33844544 119.891631,5.19218666 120.332409,5.19218666 C120.773187,5.19218666 121.140502,5.33844544 121.360891,5.55783361 C121.654744,5.85035117 121.80167,6.14286873 121.80167,6.58164506 C122.315911,6.06973934 122.903615,5.70409239 123.638245,5.41157483 C124.372875,5.11905727 125.107505,4.97279849 125.915598,4.97279849 C126.94408,4.97279849 127.825636,5.19218666 128.633729,5.55783361 C129.441823,5.92348056 130.10299,6.50851567 130.617231,7.23980957 C131.204935,6.50851567 131.939565,5.92348056 132.821121,5.55783361 C133.702677,5.19218666 134.657696,4.97279849 135.759641,4.97279849 C137.66968,5.11905727 139.065477,5.70409239 140.093959,6.80103323 Z" id="Shape"></path>
                </g>
                <g id="APP-Icon">
                    <g id="white-spectrum">
                        <polygon id="_Path_" fill="#FFFFFF" points="0.00910391032 43.9987217 11.0931147 43.9987217 23.1330361 22.0388976"></polygon>
                        <polygon id="_Path_2" fill="#FFFFFF" opacity="0.9" points="11.0931147 43.9987217 20.1515055 43.9987217 23.1330361 22.0388976"></polygon>
                        <polygon id="_Path_3" fill="#FFFFFF" opacity="0.8" points="23.041997 22.4681534 20.1742653 43.9987217 29.7561309 43.9987217 23.1330361 22.0388976"></polygon>
                        <path d="M23.1330361,22.2196369 L29.6650918,43.9987217 C33.1473375,43.9987217 36.5385441,43.2983569 38.9055607,41.5813336 L23.1330361,22.0388976 L23.1330361,22.2196369 Z" id="_Path_4" fill="#FFFFFF" opacity="0.7"></path>
                        <polygon id="_Path_5" fill="#6EC8FF" points="23.1330361 22.2196369 29.7561309 43.9987217 29.7561309 43.9987217"></polygon>
                        <path d="M38.9055607,41.5813336 C41.0904992,39.9320876 42.5698847,37.4243299 42.8202422,33.7191744 L42.8202422,33.1091793 L23.1102763,22.0388976 L38.9055607,41.5813336 Z" id="_Path_6" fill="#FFFFFF" opacity="0.6"></path>
                        <path d="M42.843002,33.1091793 C43.0250802,25.5859062 36.8344212,21.9485279 29.4147342,21.9485279 L23.041997,22.0388976 L42.843002,33.1091793 Z" id="_Path_7" fill="#FFFFFF" opacity="0.5"></path>
                        <polygon id="_Path_8" fill="#ABE7FF" points="23.1330361 22.0388976 42.843002 33.1091793 42.843002 33.1091793 23.2013154 22.1292672"></polygon>
                        <polygon id="_Path_9" fill="#FFFFFF" points="42.83845 0 31.7544392 0 19.7145178 21.9598241"></polygon>
                        <polygon id="_Path_10" fill="#FFFFFF" opacity="0.9" points="31.7544392 0 22.6960484 0 19.7145178 21.9598241"></polygon>
                        <polygon id="_Path_11" fill="#FFFFFF" opacity="0.8" points="19.8055569 21.5305683 22.6960484 0 13.091423 0 19.7145178 21.9598241"></polygon>
                        <path d="M19.7145178,21.7790848 L13.091423,0 C9.60917734,0 6.28625008,0.700364761 3.94199317,2.41738805 L19.7372776,21.9598241 L19.7372776,21.7790848 L19.7145178,21.7790848 Z" id="_Path_12" fill="#FFFFFF" opacity="0.7"></path>
                        <polygon id="_Path_13" fill="#6EC8FF" points="19.7145178 21.7790848 13.091423 0 13.091423 0"></polygon>
                        <path d="M3.94199317,2.41738805 C1.75705469,3.97626445 0.277669265,6.48402214 0.027311731,10.2795473 L0.027311731,10.8895424 L19.7372776,21.9598241 L3.94199317,2.41738805 Z" id="_Path_14" fill="#FFFFFF" opacity="0.6"></path>
                        <path d="M0.00455195516,10.8805055 C-0.177526251,18.4037785 6.01313277,22.0411568 13.4328197,22.0411568 L19.8055569,21.9507872 L0.00455195516,10.8805055 Z" id="_Path_15" fill="#FFFFFF" opacity="0.5"></path>
                        <polygon id="_Path_16" fill="#ABE7FF" points="19.7145178 21.9598241 0.00455195516 10.8895424 0.00455195516 10.8895424 19.6234787 21.8694545"></polygon>
                    </g>
                </g>
            </g>
        </g>
    </g>
</svg>