<?xml version="1.0" encoding="UTF-8"?>
<svg width="195px" height="42px" viewBox="0 0 195 42" version="1.1" xmlns="http://www.w3.org/2000/svg" xmlns:xlink="http://www.w3.org/1999/xlink">
    <!-- Generator: Sketch 49.3 (51167) - http://www.bohemiancoding.com/sketch -->
    <title>Group</title>
    <desc>Created with Sketch.</desc>
    <defs></defs>
    <g id="DESKTOP-UI" stroke="none" stroke-width="1" fill="none" fill-rule="evenodd">
        <g id="Artboard-Copy" transform="translate(0.000000, -2.000000)" fill="#FFFFFF">
            <g id="Group" transform="translate(0.000000, 2.000000)">
                <g id="Group-38">
                    <g id="Group-37" transform="translate(45.388889, 0.000000)">
                        <path d="M0.825310526,11.0163461 C0.297318594,9.98970474 0,8.82981451 0,7.60193041 C0,3.40350017 3.47601146,0 7.76388889,0 C12.0517663,0 15.5277778,3.40350017 15.5277778,7.60193041 C15.5277778,8.35557728 15.4157713,9.08360937 15.2071683,9.77093818 L15.2086634,9.77093818 L15.2023728,9.78667599 C15.0804599,10.1851883 14.9260552,10.5699539 14.7421704,10.9380239 L7.65589809,28.6666667 L0.825310526,11.0163461 Z M7.76388889,11.4028956 C9.90782761,11.4028956 11.6458333,9.70114552 11.6458333,7.60193041 C11.6458333,5.50271529 9.90782761,3.8009652 7.76388889,3.8009652 C5.61995017,3.8009652 3.88194444,5.50271529 3.88194444,7.60193041 C3.88194444,9.70114552 5.61995017,11.4028956 7.76388889,11.4028956 Z" id="Combined-Shape"></path>
                    </g>
                    <path d="M24.1356163,29.5940969 C27.1835385,24.7133324 27.9515573,19.6593415 26.4396726,14.4321241 L25.0105269,10.8948646 C23.5278188,7.22503316 25.3008325,3.04807453 28.970664,1.56536639 C32.6404954,0.0826582391 36.817454,1.85567198 38.3001622,5.52550342 L49.0388845,32.1047739 C50.5215927,35.7746054 48.7485789,39.951564 45.0787475,41.4342721 C41.4089161,42.9169803 37.2319574,41.1439665 35.7492493,37.4741351 L29.9017479,23.0010613 C28.9094166,31.8800902 26.7102672,37.5846133 23.3042996,40.1146305 C22.6988879,40.6603246 21.98939,41.1112405 21.1898586,41.4342721 C17.5200272,42.9169803 13.3430685,41.1439665 11.8603604,37.4741351 L1.12163805,10.8948646 C-0.361070094,7.22503316 1.41194365,3.04807453 5.08177509,1.56536639 C8.75160653,0.0826582391 12.9285652,1.85567198 14.4112733,5.52550342 L24.1356163,29.5940969 Z" id="Combined-Shape"></path>
                </g>
                <path d="M102.184471,13.2 L96.5684706,30 L94.0484706,30 L89.4644706,16.584 L84.8804706,30 L82.3124706,30 L76.6964706,13.2 L79.1684706,13.2 L83.7044706,26.856 L88.4324706,13.2 L90.6404706,13.2 L95.2724706,26.928 L99.9044706,13.2 L102.184471,13.2 Z M108.965647,29.076 C107.60564,28.3319963 106.537651,27.3040066 105.761647,25.992 C104.985643,24.6799934 104.597647,23.2160081 104.597647,21.6 C104.597647,19.9839919 104.985643,18.5200066 105.761647,17.208 C106.537651,15.8959934 107.60564,14.8680037 108.965647,14.124 C110.325654,13.3799963 111.853639,13.008 113.549647,13.008 C115.229655,13.008 116.74964,13.3799963 118.109647,14.124 C119.469654,14.8680037 120.533643,15.8919935 121.301647,17.196 C122.069651,18.5000065 122.453647,19.9679918 122.453647,21.6 C122.453647,23.2320082 122.069651,24.6999935 121.301647,26.004 C120.533643,27.3080065 119.469654,28.3319963 118.109647,29.076 C116.74964,29.8200037 115.229655,30.192 113.549647,30.192 C111.853639,30.192 110.325654,29.8200037 108.965647,29.076 Z M116.873647,27.216 C117.857652,26.6559972 118.633644,25.8840049 119.201647,24.9 C119.76965,23.9159951 120.053647,22.8160061 120.053647,21.6 C120.053647,20.3839939 119.76965,19.2840049 119.201647,18.3 C118.633644,17.3159951 117.857652,16.5440028 116.873647,15.984 C115.889642,15.4239972 114.781653,15.144 113.549647,15.144 C112.317641,15.144 111.201652,15.4239972 110.201647,15.984 C109.201642,16.5440028 108.41765,17.3159951 107.849647,18.3 C107.281644,19.2840049 106.997647,20.3839939 106.997647,21.6 C106.997647,22.8160061 107.281644,23.9159951 107.849647,24.9 C108.41765,25.8840049 109.201642,26.6559972 110.201647,27.216 C111.201652,27.7760028 112.317641,28.056 113.549647,28.056 C114.781653,28.056 115.889642,27.7760028 116.873647,27.216 Z M130.146824,29.076 C128.786817,28.3319963 127.718827,27.3040066 126.942824,25.992 C126.16682,24.6799934 125.778824,23.2160081 125.778824,21.6 C125.778824,19.9839919 126.16682,18.5200066 126.942824,17.208 C127.718827,15.8959934 128.786817,14.8680037 130.146824,14.124 C131.50683,13.3799963 133.034815,13.008 134.730824,13.008 C136.410832,13.008 137.930817,13.3799963 139.290824,14.124 C140.65083,14.8680037 141.71482,15.8919935 142.482824,17.196 C143.250827,18.5000065 143.634824,19.9679918 143.634824,21.6 C143.634824,23.2320082 143.250827,24.6999935 142.482824,26.004 C141.71482,27.3080065 140.65083,28.3319963 139.290824,29.076 C137.930817,29.8200037 136.410832,30.192 134.730824,30.192 C133.034815,30.192 131.50683,29.8200037 130.146824,29.076 Z M138.054824,27.216 C139.038828,26.6559972 139.814821,25.8840049 140.382824,24.9 C140.950826,23.9159951 141.234824,22.8160061 141.234824,21.6 C141.234824,20.3839939 140.950826,19.2840049 140.382824,18.3 C139.814821,17.3159951 139.038828,16.5440028 138.054824,15.984 C137.070819,15.4239972 135.96283,15.144 134.730824,15.144 C133.498817,15.144 132.382829,15.4239972 131.382824,15.984 C130.382819,16.5440028 129.598826,17.3159951 129.030824,18.3 C128.462821,19.2840049 128.178824,20.3839939 128.178824,21.6 C128.178824,22.8160061 128.462821,23.9159951 129.030824,24.9 C129.598826,25.8840049 130.382819,26.6559972 131.382824,27.216 C132.382829,27.7760028 133.498817,28.056 134.730824,28.056 C135.96283,28.056 137.070819,27.7760028 138.054824,27.216 Z M161.936,22.764 C162.496003,23.4760036 162.776,24.3759946 162.776,25.464 C162.776,26.9200073 162.228005,28.0399961 161.132,28.824 C160.035995,29.6080039 158.44001,30 156.344,30 L148.328,30 L148.328,13.2 L155.864,13.2 C157.78401,13.2 159.267995,13.5839962 160.316,14.352 C161.364005,15.1200038 161.888,16.1839932 161.888,17.544 C161.888,18.4240044 161.684002,19.1839968 161.276,19.824 C160.867998,20.4640032 160.320003,20.9519983 159.632,21.288 C160.608005,21.5600014 161.375997,22.0519964 161.936,22.764 Z M150.728,15.144 L150.728,20.52 L155.648,20.52 C156.880006,20.52 157.827997,20.2920023 158.492,19.836 C159.156003,19.3799977 159.488,18.7120044 159.488,17.832 C159.488,16.9519956 159.156003,16.2840023 158.492,15.828 C157.827997,15.3719977 156.880006,15.144 155.648,15.144 L150.728,15.144 Z M159.32,27.384 C160.008003,26.9359978 160.352,26.2320048 160.352,25.272 C160.352,23.3999906 158.984014,22.464 156.248,22.464 L150.728,22.464 L150.728,28.056 L156.248,28.056 C157.608007,28.056 158.631997,27.8320022 159.32,27.384 Z M167.517176,13.2 L169.917176,13.2 L169.917176,27.912 L179.013176,27.912 L179.013176,30 L167.517176,30 L167.517176,13.2 Z M187.474353,24.192 L187.474353,30 L185.098353,30 L185.098353,24.144 L178.426353,13.2 L180.994353,13.2 L186.370353,22.056 L191.770353,13.2 L194.146353,13.2 L187.474353,24.192 Z" id="WOOBLY"></path>
            </g>
        </g>
    </g>
</svg>